<?xml version="1.0" encoding="utf-8"?>
<!-- Generator: Adobe Illustrator 18.1.0, SVG Export Plug-In . SVG Version: 6.00 Build 0)  -->
<svg version="1.1" id="Layer_1" xmlns="http://www.w3.org/2000/svg" xmlns:xlink="http://www.w3.org/1999/xlink" x="0px" y="0px"
	 viewBox="0 0 732.7 340.4" enable-background="new 0 0 732.7 340.4" xml:space="preserve">
<g>
	<polygon points="304.8,258.7 255.7,258.7 255.7,258.3 304.4,258.3 304.4,82.1 255.7,82.1 255.7,81.7 304.8,81.7 	"/>
	<polygon points="476.8,258.7 428.7,258.7 428.7,81.7 476.8,81.7 476.8,82.1 429.2,82.1 429.2,258.3 476.8,258.3 	"/>
	<path d="M401.6,178.6h-70.5v-16.8h70.5V178.6z M331.5,178.1h69.7v-15.9h-69.7V178.1z"/>
	<path d="M472.4,175.9h-60.8v-11.4h60.8V175.9z M412,175.5h60v-10.6h-60V175.5z"/>
	<path d="M321.3,175.9h-60.8v-11.4h60.8V175.9z M260.9,175.5h60v-10.6h-60V175.5z"/>
	<polygon points="732,188 634,188 634,176.6 732,176.6 732,177 634.5,177 634.5,187.6 732,187.6 	"/>
	<polygon points="574.2,324.6 525.2,324.6 525.2,280.7 574.5,280.7 574.5,281.1 525.6,281.1 525.6,324.1 574.2,324.1 	"/>
	<polygon points="574.2,237 525.2,237 525.2,193.2 574.5,193.2 574.5,193.6 525.6,193.6 525.6,236.6 574.2,236.6 	"/>
	<polygon points="732.7,253.3 634,253.3 634,241.9 732.7,241.9 732.7,242.3 634.5,242.3 634.5,252.9 732.7,252.9 	"/>
	<polygon points="732,231.3 634,231.3 634,219.9 732,219.9 732,220.3 634.5,220.3 634.5,230.9 732,230.9 	"/>
	<polygon points="634,247.9 574.5,247.9 574.5,225.5 634.4,225.5 634.4,225.9 574.9,225.9 574.9,247.5 634,247.5 	"/>
	<polygon points="732.7,210.1 634,210.1 634,198.6 732.7,198.6 732.7,199.1 634.5,199.1 634.5,209.6 732.7,209.6 	"/>
	<polygon points="634,204.7 574.5,204.7 574.5,182.2 634.2,182.2 634.2,182.7 574.9,182.7 574.9,204.2 634,204.2 	"/>
	<polygon points="525.2,302.7 476.9,302.7 476.9,214.8 525.4,214.8 525.4,215.2 477.4,215.2 477.4,302.3 525.2,302.3 	"/>
	<polygon points="732.7,297.6 634,297.6 634,286.2 732.7,286.2 732.7,286.6 634.5,286.6 634.5,297.2 732.7,297.2 	"/>
	<polygon points="732,275.6 634,275.6 634,264.2 732,264.2 732,264.6 634.5,264.6 634.5,275.2 732,275.2 	"/>
	<polygon points="634,292.2 574.5,292.2 574.5,269.8 634.2,269.8 634.2,270.2 574.9,270.2 574.9,291.8 634,291.8 	"/>
	<polygon points="732.7,340.4 634,340.4 634,328.9 732.7,328.9 732.7,329.3 634.5,329.3 634.5,339.9 732.7,339.9 	"/>
	<polygon points="732,318.3 634,318.3 634,306.9 732,306.9 732,307.3 634.5,307.3 634.5,317.9 732,317.9 	"/>
	<polygon points="634,335 574.5,335 574.5,312.5 634.2,312.5 634.2,313 574.9,313 574.9,334.5 634,334.5 	"/>
	<polygon points="574.2,147.9 525.2,147.9 525.2,104.1 574.5,104.1 574.5,104.5 525.6,104.5 525.6,147.5 574.2,147.5 	"/>
	<polygon points="574.2,60.4 525.2,60.4 525.2,16.6 574.5,16.6 574.5,17 525.6,17 525.6,60 574.2,60 	"/>
	<polygon points="732.7,76.7 634,76.7 634,65.3 732.7,65.3 732.7,65.7 634.5,65.7 634.5,76.3 732.7,76.3 	"/>
	<polygon points="732,54.7 634,54.7 634,43.3 732,43.3 732,43.7 634.5,43.7 634.5,54.3 732,54.3 	"/>
	<polygon points="634,71.3 574.5,71.3 574.5,48.9 634.2,48.9 634.2,49.3 574.9,49.3 574.9,70.9 634,70.9 	"/>
	<polygon points="732.7,33.4 634,33.4 634,22 732.7,22 732.7,22.4 634.5,22.4 634.5,33 732.7,33 	"/>
	<polygon points="732,11.4 634,11.4 634,0 732,0 732,0.4 634.5,0.4 634.5,11 732,11 	"/>
	<polygon points="634,28 574.5,28 574.5,5.6 634.2,5.6 634.2,6 574.9,6 574.9,27.6 634,27.6 	"/>
	<polygon points="525.2,126.1 476.9,126.1 476.9,38.2 525.4,38.2 525.4,38.6 477.4,38.6 477.4,125.7 525.2,125.7 	"/>
	<polygon points="732.7,121 634,121 634,109.5 732.7,109.5 732.7,110 634.5,110 634.5,120.5 732.7,120.5 	"/>
	<polygon points="732,99 634,99 634,87.5 732,87.5 732,88 634.5,88 634.5,98.5 732,98.5 	"/>
	<polygon points="634,115.6 574.5,115.6 574.5,93.1 634.2,93.1 634.2,93.6 574.9,93.6 574.9,115.2 634,115.2 	"/>
	<polygon points="732.7,163.7 634,163.7 634,152.3 732.7,152.3 732.7,152.7 634.5,152.7 634.5,163.3 732.7,163.3 	"/>
	<polygon points="732,141.7 634,141.7 634,130.3 732,130.3 732,130.7 634.5,130.7 634.5,141.3 732,141.3 	"/>
	<polygon points="634,158.3 574.5,158.3 574.5,135.9 634.2,135.9 634.2,136.3 574.9,136.3 574.9,157.9 634,157.9 	"/>
	<polygon points="207.5,324.6 158.4,324.6 158.4,324.1 207.1,324.1 207.1,281.1 158.2,281.1 158.2,280.7 207.5,280.7 	"/>
	<polygon points="207.5,237 158.4,237 158.4,236.6 207.1,236.6 207.1,193.6 158.2,193.6 158.2,193.2 207.5,193.2 	"/>
	<polygon points="98.7,253.3 0,253.3 0,252.9 98.2,252.9 98.2,242.3 0,242.3 0,241.9 98.7,241.9 	"/>
	<polygon points="98.7,231.3 0.7,231.3 0.7,230.9 98.2,230.9 98.2,220.3 0.7,220.3 0.7,219.9 98.7,219.9 	"/>
	<polygon points="158.2,247.9 98.6,247.9 98.6,247.5 157.8,247.5 157.8,225.9 98.4,225.9 98.4,225.5 158.2,225.5 	"/>
	<polygon points="98.7,210.1 0,210.1 0,209.6 98.2,209.6 98.2,199.1 0,199.1 0,198.6 98.7,198.6 	"/>
	<polygon points="98.7,188 0.7,188 0.7,187.6 98.2,187.6 98.2,177 0.7,177 0.7,176.6 98.7,176.6 	"/>
	<polygon points="158.2,204.7 98.6,204.7 98.6,204.2 157.8,204.2 157.8,182.7 98.4,182.7 98.4,182.2 158.2,182.2 	"/>
	<polygon points="255.7,302.7 207.5,302.7 207.5,302.3 255.3,302.3 255.3,215.2 207.3,215.2 207.3,214.8 255.7,214.8 	"/>
	<polygon points="98.7,297.6 0,297.6 0,297.2 98.2,297.2 98.2,286.6 0,286.6 0,286.2 98.7,286.2 	"/>
	<polygon points="98.7,275.6 0.7,275.6 0.7,275.2 98.2,275.2 98.2,264.6 0.7,264.6 0.7,264.2 98.7,264.2 	"/>
	<polygon points="158.2,292.2 98.6,292.2 98.6,291.8 157.8,291.8 157.8,270.2 98.4,270.2 98.4,269.8 158.2,269.8 	"/>
	<polygon points="98.7,340.4 0,340.4 0,339.9 98.2,339.9 98.2,329.3 0,329.3 0,328.9 98.7,328.9 	"/>
	<polygon points="98.7,318.3 0.7,318.3 0.7,317.9 98.2,317.9 98.2,307.3 0.7,307.3 0.7,306.9 98.7,306.9 	"/>
	<polygon points="158.2,335 98.6,335 98.6,334.5 157.8,334.5 157.8,313 98.4,313 98.4,312.5 158.2,312.5 	"/>
	<polygon points="207.5,147.9 158.4,147.9 158.4,147.5 207.1,147.5 207.1,104.5 158.2,104.5 158.2,104.1 207.5,104.1 	"/>
	<polygon points="207.5,60.4 158.4,60.4 158.4,60 207.1,60 207.1,17 158.2,17 158.2,16.6 207.5,16.6 	"/>
	<polygon points="98.7,76.7 0,76.7 0,76.3 98.2,76.3 98.2,65.7 0,65.7 0,65.3 98.7,65.3 	"/>
	<polygon points="98.7,54.7 0.7,54.7 0.7,54.3 98.2,54.3 98.2,43.7 0.7,43.7 0.7,43.3 98.7,43.3 	"/>
	<polygon points="158.2,71.3 98.6,71.3 98.6,70.9 157.8,70.9 157.8,49.3 98.4,49.3 98.4,48.9 158.2,48.9 	"/>
	<polygon points="98.7,33.4 0,33.4 0,33 98.2,33 98.2,22.4 0,22.4 0,22 98.7,22 	"/>
	<polygon points="98.7,11.4 0.7,11.4 0.7,11 98.2,11 98.2,0.4 0.7,0.4 0.7,0 98.7,0 	"/>
	<polygon points="158.2,28 98.6,28 98.6,27.6 157.8,27.6 157.8,6 98.4,6 98.4,5.6 158.2,5.6 	"/>
	<polygon points="255.7,126.1 207.5,126.1 207.5,125.7 255.3,125.7 255.3,38.6 207.3,38.6 207.3,38.2 255.7,38.2 	"/>
	<polygon points="98.7,121 0,121 0,120.5 98.2,120.5 98.2,110 0,110 0,109.5 98.7,109.5 	"/>
	<polygon points="98.7,99 0.7,99 0.7,98.5 98.2,98.5 98.2,88 0.7,88 0.7,87.5 98.7,87.5 	"/>
	<polygon points="158.2,115.6 98.6,115.6 98.6,115.2 157.8,115.2 157.8,93.6 98.4,93.6 98.4,93.1 158.2,93.1 	"/>
	<polygon points="98.7,163.7 0,163.7 0,163.3 98.2,163.3 98.2,152.7 0,152.7 0,152.3 98.7,152.3 	"/>
	<polygon points="98.7,141.7 0.7,141.7 0.7,141.3 98.2,141.3 98.2,130.7 0.7,130.7 0.7,130.3 98.7,130.3 	"/>
	<polygon points="158.2,158.3 98.6,158.3 98.6,157.9 157.8,157.9 157.8,136.3 98.4,136.3 98.4,135.9 158.2,135.9 	"/>
</g>
</svg>
